# 3ds Max Wavefront OBJ Exporter v0.97b - (c)2007 guruware
# File Created: 05.10.2012 15:13:59

mtllib Shield_OBJ.mtl

#
# object Box001
#

v  -60.397583 49.437595 3.753874
v  -59.968445 120.483582 -30.859638
v  -62.180298 51.386578 7.732163
v  -61.751160 122.432564 -26.881351
v  -29.606409 127.091614 -28.155128
v  -34.178978 22.200947 30.439814
v  -32.366432 19.079964 24.056269
v  -31.418947 130.212616 -21.771587
v  -62.262711 84.810829 -13.886047
v  -64.045425 86.759811 -9.907757
v  -29.943087 71.353180 -0.999424
v  -31.755625 74.474174 5.384115
v  -5.054026 128.040573 -26.934479
v  -5.893139 10.833900 40.746605
v  -5.529430 71.087059 11.410606
v  49.511688 49.437595 5.116535
v  51.813568 84.810829 -12.471725
v  19.184395 71.353180 -0.390339
v  20.985813 19.079964 24.717733
v  51.195229 51.386578 9.137798
v  22.639538 22.200947 31.144253
v  20.838118 74.474174 6.036175
v  53.497108 86.759811 -8.450459
v  49.940826 120.483582 -29.496979
v  51.624367 122.432564 -25.475714
v  19.521072 127.091614 -27.546040
v  -5.422551 67.029663 2.789968
v  -5.784646 6.900211 31.995811
v  21.174797 130.212616 -21.119528
v  -5.160148 132.223373 -18.374931
# 30 vertices

vn 0.597813 -0.354018 -0.719229
vn 0.420647 -0.395762 -0.816351
vn 0.356933 -0.405720 -0.841422
vn -0.752515 0.290304 0.591139
vn -0.612565 0.350981 0.708220
vn -0.646862 0.336410 0.684395
vn -0.749072 0.292357 0.594490
vn -0.657438 -0.696355 0.287865
vn -0.574247 -0.748719 0.331150
vn -0.769000 -0.601420 0.216642
vn -0.768492 -0.604344 0.210211
vn -0.995123 -0.038280 -0.090908
vn -0.995123 -0.038280 -0.090909
vn -0.993270 0.011942 -0.115206
vn 0.011145 -0.438011 -0.898901
vn 0.011190 -0.430478 -0.902532
vn 0.413222 -0.400857 -0.817656
vn -0.011151 0.436978 0.899403
vn -0.011154 0.436434 0.899667
vn -0.005231 -0.906603 0.421953
vn -0.005352 -0.902003 0.431698
vn -0.143829 0.884068 -0.444677
vn -0.140311 0.883680 -0.446567
vn -0.049286 0.896270 -0.440762
vn -0.094813 0.892018 -0.441944
vn 0.597813 -0.354018 -0.719230
vn -0.643418 0.341039 0.685351
vn -0.753977 0.303714 0.582474
vn -0.993876 -0.088382 -0.066328
vn 0.005438 0.898677 -0.438578
vn 0.005433 0.898858 -0.438205
vn 0.011173 -0.433219 -0.901220
vn -0.011145 0.438011 0.898901
vn -0.579798 -0.354018 -0.733829
vn -0.335962 -0.405720 -0.850012
vn -0.400278 -0.395762 -0.826529
vn 0.737628 0.290304 0.609613
vn 0.734103 0.292357 0.612878
vn 0.629696 0.336410 0.700222
vn 0.594819 0.350981 0.723189
vn 0.650099 -0.696355 0.304076
vn 0.763044 -0.604344 0.229199
vn 0.763392 -0.601420 0.235641
vn 0.565861 -0.748719 0.345285
vn 0.997071 -0.038280 -0.066209
vn 0.995821 0.011942 -0.090545
vn -0.392824 -0.400857 -0.827649
vn 0.154810 0.884068 -0.440975
vn 0.105740 0.892018 -0.439458
vn 0.060198 0.896270 -0.439404
vn 0.151340 0.883680 -0.442951
vn -0.579798 -0.354018 -0.733830
vn 0.626228 0.341039 0.701092
vn 0.739304 0.303714 0.600988
vn 0.995215 -0.088382 -0.041667
# 55 vertex normals

vt 0.473660 0.601785 0.000000
vt 0.481064 0.720303 0.000000
vt 0.365656 0.667801 0.000000
vt 0.373163 0.493874 0.000000
vt 0.530500 0.603381 0.000000
vt 0.629096 0.494393 0.000000
vt 0.636451 0.669657 0.000000
vt 0.523246 0.722835 0.000000
vt 0.512673 0.091443 0.000000
vt 0.564998 0.087053 0.000000
vt 0.566355 0.185030 0.000000
vt 0.515080 0.187643 0.000000
vt 0.511002 0.278375 0.000000
vt 0.564839 0.275564 0.000000
vt 0.561352 0.330076 0.000000
vt 0.512537 0.331267 0.000000
vt 0.278556 0.855170 0.000000
vt 0.278556 0.651594 0.000000
vt 0.365656 0.853784 0.000000
vt 0.727964 0.450286 0.000000
vt 0.727965 0.652871 0.000000
vt 0.512397 0.064431 0.000000
vt 0.565025 0.062562 0.000000
vt 0.562326 0.380014 0.000000
vt 0.513257 0.379281 0.000000
vt 0.473660 0.838846 0.000000
vt 0.636451 0.857086 0.000000
vt 0.530500 0.842284 0.000000
vt 0.513616 0.395849 0.000000
vt 0.563973 0.396201 0.000000
vt 0.278561 0.451072 0.000000
vt 0.727965 0.858452 0.000000
vt 0.084323 0.601697 0.000000
vt 0.184171 0.493831 0.000000
vt 0.191629 0.667761 0.000000
vt 0.076966 0.720212 0.000000
vt 0.924196 0.603399 0.000000
vt 0.931413 0.722854 0.000000
vt 0.819082 0.669665 0.000000
vt 0.826399 0.494402 0.000000
vt 0.427274 0.084174 0.000000
vt 0.428325 0.168875 0.000000
vt 0.377015 0.169441 0.000000
vt 0.376936 0.085536 0.000000
vt 0.426271 0.269618 0.000000
vt 0.427046 0.374356 0.000000
vt 0.376248 0.375634 0.000000
vt 0.373732 0.271331 0.000000
vt 0.191629 0.853745 0.000000
vt 0.429146 0.063470 0.000000
vt 0.376462 0.065210 0.000000
vt 0.429326 0.399020 0.000000
vt 0.375273 0.398938 0.000000
vt 0.084323 0.838758 0.000000
vt 0.819082 0.857095 0.000000
vt 0.924196 0.842302 0.000000
vt 0.429125 0.408661 0.000000
vt 0.374840 0.409176 0.000000
# 58 texture coords

g Box001
usemtl 01___Default
s 2
f -30/-58/-55 -22/-57/-55 -20/-56/-54 -24/-55/-53 
s 4
f -28/-54/-52 -25/-53/-51 -19/-52/-50 -21/-51/-49 
s 8
f -24/-50/-48 -25/-49/-47 -28/-48/-46 -30/-47/-45 
s 64
f -22/-46/-44 -21/-45/-43 -27/-44/-42 -29/-43/-42 
s 2
f -18/-42/-41 -4/-41/-40 -20/-56/-54 -26/-40/-39 
s 4
f -25/-53/-51 -17/-39/-38 -16/-38/-37 -19/-52/-50 
s 8
f -3/-37/-36 -17/-36/-35 -25/-49/-47 -24/-50/-48 
s 32
f -29/-43/-34 -27/-44/-33 -23/-35/-32 -26/-34/-31 
s 2
f -22/-57/-55 -29/-33/-30 -26/-40/-39 -20/-56/-54 
s 4
f -23/-32/-29 -27/-31/-28 -21/-51/-49 -19/-52/-50 
s 64
f -30/-47/-27 -28/-48/-27 -21/-45/-43 -22/-46/-44 
s 32
f -18/-30/-26 -26/-34/-31 -23/-35/-32 -1/-29/-25 
s 2
f -24/-55/-53 -20/-56/-54 -4/-41/-40 -3/-28/-24 
s 4
f -1/-27/-23 -23/-32/-29 -19/-52/-50 -16/-38/-37 
s 2
f -15/-26/-22 -12/-25/-21 -13/-24/-20 -14/-23/-22 
s 4
f -11/-22/-19 -8/-21/-18 -9/-20/-17 -10/-19/-16 
s 8
f -12/-18/-15 -15/-17/-14 -11/-16/-13 -10/-15/-12 
s 64
f -14/-14/-11 -7/-13/-10 -6/-12/-10 -8/-11/-11 
s 2
f -18/-42/-41 -5/-10/-9 -13/-24/-20 -4/-41/-40 
s 4
f -10/-19/-16 -9/-20/-17 -16/-38/-37 -17/-39/-38 
s 8
f -3/-9/-36 -12/-18/-15 -10/-15/-12 -17/-8/-35 
s 32
f -7/-13/-8 -5/-7/-7 -2/-6/-6 -6/-12/-5 
s 2
f -14/-23/-22 -13/-24/-20 -5/-10/-9 -7/-5/-4 
s 4
f -2/-4/-3 -9/-20/-17 -8/-21/-18 -6/-3/-2 
s 64
f -15/-17/-1 -14/-14/-11 -8/-11/-11 -11/-16/-1 
s 32
f -18/-2/-26 -1/-1/-25 -2/-6/-6 -5/-7/-7 
s 2
f -12/-25/-21 -3/-28/-24 -4/-41/-40 -13/-24/-20 
s 4
f -1/-27/-23 -16/-38/-37 -9/-20/-17 -2/-4/-3 
# 28 polygons

